<svg width="107" height="19" viewBox="0 0 107 19" fill="none" xmlns="http://www.w3.org/2000/svg">
<path d="M0.828125 0.750244H13.0742V3.7854H4.41406V7.75806H11.9961V10.7581H4.41406V18.0002H0.828125V0.750244ZM49.2852 4.92212C50.0586 4.92212 50.7461 5.09399 51.3477 5.43774C51.9492 5.77368 52.4375 6.24243 52.8125 6.84399V0.750244H56.1992V18.0002H52.9531V16.2307C52.4766 16.9885 51.9336 17.5393 51.3242 17.8831C50.7148 18.2268 49.957 18.3987 49.0508 18.3987C47.5586 18.3987 46.3008 17.7971 45.2773 16.594C44.2617 15.3831 43.7539 13.8323 43.7539 11.9417C43.7539 9.76196 44.2539 8.04712 45.2539 6.79712C46.2617 5.54712 47.6055 4.92212 49.2852 4.92212ZM50.0117 15.5862C50.957 15.5862 51.6758 15.2346 52.168 14.5315C52.6602 13.8284 52.9062 12.9182 52.9062 11.801C52.9062 10.2385 52.5117 9.12134 51.7227 8.44946C51.2383 8.04321 50.6758 7.84009 50.0352 7.84009C49.0586 7.84009 48.3398 8.21118 47.8789 8.95337C47.4258 9.68774 47.1992 10.6018 47.1992 11.6956C47.1992 12.8752 47.4297 13.8206 47.8906 14.5315C48.3594 15.2346 49.0664 15.5862 50.0117 15.5862ZM57.9336 7.7229V5.34399H59.7148V1.78149H63.0195V5.34399H65.0938V7.7229H63.0195V14.4729C63.0195 14.9963 63.0859 15.3245 63.2188 15.4573C63.3516 15.5823 63.7578 15.6448 64.4375 15.6448C64.5391 15.6448 64.6445 15.6448 64.7539 15.6448C64.8711 15.637 64.9844 15.6292 65.0938 15.6213V18.1174L63.5117 18.176C61.9336 18.2307 60.8555 17.9573 60.2773 17.3557C59.9023 16.9729 59.7148 16.3831 59.7148 15.5862V7.7229H57.9336ZM70.5664 5.22681V12.926C70.5664 13.6526 70.6523 14.1995 70.8242 14.5667C71.1289 15.2151 71.7266 15.5393 72.6172 15.5393C73.7578 15.5393 74.5391 15.0784 74.9609 14.1565C75.1797 13.6565 75.2891 12.9963 75.2891 12.176V5.22681H78.6758V18.0002H75.4297V16.1956C75.3984 16.2346 75.3203 16.3518 75.1953 16.5471C75.0703 16.7424 74.9219 16.9143 74.75 17.0627C74.2266 17.5315 73.7188 17.8518 73.2266 18.0237C72.7422 18.1956 72.1719 18.2815 71.5156 18.2815C69.625 18.2815 68.3516 17.6018 67.6953 16.2424C67.3281 15.4924 67.1445 14.387 67.1445 12.926V5.22681H70.5664ZM89.5391 9.80884C89.4766 9.33228 89.3164 8.90259 89.0586 8.51978C88.6836 8.00415 88.1016 7.74634 87.3125 7.74634C86.1875 7.74634 85.418 8.30493 85.0039 9.42212C84.7852 10.0159 84.6758 10.8049 84.6758 11.7893C84.6758 12.7268 84.7852 13.4807 85.0039 14.051C85.4023 15.1135 86.1523 15.6448 87.2539 15.6448C88.0352 15.6448 88.5898 15.4338 88.918 15.012C89.2461 14.5901 89.4453 14.0432 89.5156 13.3713H92.9258C92.8477 14.387 92.4805 15.3479 91.8242 16.2542C90.7773 17.7151 89.2266 18.4456 87.1719 18.4456C85.1172 18.4456 83.6055 17.8362 82.6367 16.6174C81.668 15.3987 81.1836 13.8167 81.1836 11.8713C81.1836 9.67603 81.7188 7.96899 82.7891 6.75024C83.8594 5.53149 85.3359 4.92212 87.2188 4.92212C88.8203 4.92212 90.1289 5.28149 91.1445 6.00024C92.168 6.71899 92.7734 7.98853 92.9609 9.80884H89.5391ZM95.2344 0.7854H98.5156V10.0901L102.676 5.2854H106.812L102.348 10.1721L106.988 18.0002H102.957L99.8984 12.5393L98.5156 13.9807V18.0002H95.2344V0.7854Z" fill="black"/>
<path d="M20.9609 15.6448C21.9375 15.6448 22.6875 15.2971 23.2109 14.6018C23.7344 13.9065 23.9961 12.9182 23.9961 11.637C23.9961 10.3557 23.7344 9.37134 23.2109 8.68384C22.6875 7.98853 21.9375 7.64087 20.9609 7.64087C19.9844 7.64087 19.2305 7.98853 18.6992 8.68384C18.1758 9.37134 17.9141 10.3557 17.9141 11.637C17.9141 12.9182 18.1758 13.9065 18.6992 14.6018C19.2305 15.2971 19.9844 15.6448 20.9609 15.6448ZM27.5 11.637C27.5 13.512 26.9609 15.1174 25.8828 16.4534C24.8047 17.7815 23.168 18.4456 20.9727 18.4456C18.7773 18.4456 17.1406 17.7815 16.0625 16.4534C14.9844 15.1174 14.4453 13.512 14.4453 11.637C14.4453 9.79321 14.9844 8.19556 16.0625 6.84399C17.1406 5.49243 18.7773 4.81665 20.9727 4.81665C23.168 4.81665 24.8047 5.49243 25.8828 6.84399C26.9609 8.19556 27.5 9.79321 27.5 11.637ZM35.6328 15.6448C36.6094 15.6448 37.3594 15.2971 37.8828 14.6018C38.4062 13.9065 38.668 12.9182 38.668 11.637C38.668 10.3557 38.4062 9.37134 37.8828 8.68384C37.3594 7.98853 36.6094 7.64087 35.6328 7.64087C34.6562 7.64087 33.9023 7.98853 33.3711 8.68384C32.8477 9.37134 32.5859 10.3557 32.5859 11.637C32.5859 12.9182 32.8477 13.9065 33.3711 14.6018C33.9023 15.2971 34.6562 15.6448 35.6328 15.6448ZM42.1719 11.637C42.1719 13.512 41.6328 15.1174 40.5547 16.4534C39.4766 17.7815 37.8398 18.4456 35.6445 18.4456C33.4492 18.4456 31.8125 17.7815 30.7344 16.4534C29.6562 15.1174 29.1172 13.512 29.1172 11.637C29.1172 9.79321 29.6562 8.19556 30.7344 6.84399C31.8125 5.49243 33.4492 4.81665 35.6445 4.81665C37.8398 4.81665 39.4766 5.49243 40.5547 6.84399C41.6328 8.19556 42.1719 9.79321 42.1719 11.637Z" fill="#195A00"/>
</svg>
