<svg width="24" height="24" viewBox="0 0 24 24" fill="none" xmlns="http://www.w3.org/2000/svg">
<path d="M21.3888 11.3602L7.89097 3.11126C7.77728 3.04179 7.64714 3.00385 7.51392 3.00135C7.3807 2.99886 7.24923 3.0319 7.13301 3.09707C7.0168 3.16225 6.92005 3.2572 6.85271 3.37217C6.78537 3.48714 6.74988 3.61798 6.74988 3.75122V20.2491C6.74988 20.3823 6.78537 20.5132 6.85271 20.6281C6.92005 20.7431 7.0168 20.8381 7.13301 20.9032C7.24923 20.9684 7.3807 21.0015 7.51392 20.999C7.64714 20.9965 7.77728 20.9585 7.89097 20.889L21.3888 12.6401C21.4984 12.5731 21.589 12.4791 21.6518 12.367C21.7147 12.255 21.7477 12.1286 21.7477 12.0002C21.7477 11.8717 21.7147 11.7454 21.6518 11.6333C21.589 11.5212 21.4984 11.4272 21.3888 11.3602Z" stroke="white" stroke-width="1.875" stroke-linecap="round" stroke-linejoin="round"/>
</svg>
