<svg width="83" height="83" viewBox="0 0 83 83" fill="none" xmlns="http://www.w3.org/2000/svg">
<path d="M74.1236 26.3266C74.5703 26.8166 74.628 27.5371 74.2821 28.1134C73.9651 28.6466 73.6913 29.1077 73.3743 29.54C70.0889 34.0935 68.2877 36.4711 65.0455 41.0534C64.2241 42.2062 62.2356 45.7365 61.4719 46.947C61.4575 46.9614 61.4575 46.9758 61.4431 46.9902C60.7514 48.0277 59.0511 47.9556 58.5035 46.8173C58.5035 46.8173 58.5035 46.8029 58.4891 46.8029C57.6821 45.0305 57.0337 43.2004 56.2844 41.3992C54.2238 36.4279 51.3563 32.1193 46.5866 29.295C44.8575 28.272 44.8287 27.5226 46.1688 26.0384C46.6731 25.4909 47.1774 24.9289 47.725 24.439C53.0134 19.727 56.659 13.9055 59.3825 7.42108C59.5554 7.01761 59.9012 6.7006 60.2759 6.38358C60.7658 5.98011 61.4719 6.03775 61.9042 6.49886C62.2644 6.87352 62.5958 7.27699 62.7976 7.72369C63.2443 8.76119 63.3596 9.92838 63.6333 11.0379C65.1031 17.0756 68.3741 21.8884 73.3455 25.5917C73.6193 25.7935 73.8642 26.0529 74.1236 26.3266ZM60.8811 11.8593C59.1663 14.7124 57.7254 17.652 55.7656 20.2169C53.7627 22.8251 51.2554 25.0442 48.9642 27.4506C54.7858 30.9377 58.1577 36.4567 60.1894 43.2292C63.1722 37.0619 67.2934 32.1626 71.8181 27.5803C64.6708 22.1334 62.9705 19.6693 60.8811 11.8593Z" fill="#195A00"/>
<path d="M19.7845 76.0547C18.4733 72.337 17.3349 68.5472 15.8939 64.8871C14.4818 61.3423 12.3779 58.1866 9.35191 55.7514C8.24236 54.858 8.27118 54.051 9.17899 53.0424C14.28 47.4946 18.1995 41.212 21.0094 34.2233C21.312 33.4739 22.1189 32.2779 22.6809 32.2779C24.2083 31.9177 24.7559 34.9005 24.8135 35.1743C26.096 42.2062 30.4477 47.3217 35.3326 52.1057C36.9177 53.662 37.0474 54.1375 35.4911 55.6361C29.6264 61.2559 25.7358 68.1726 22.3927 75.4495C21.3408 77.9856 19.9431 76.5014 19.7845 76.0547ZM11.1099 54.0366C14.2224 56.0108 16.283 58.6477 17.7816 61.6305C19.237 64.5557 20.3033 67.6538 21.5137 70.6222C24.3092 64.3684 28.0845 58.5901 33.8196 54.1951C28.2719 49.829 23.8913 44.8432 22.5512 37.696C20.1448 44.1227 16.3262 49.4687 11.1099 54.0366Z" fill="#195A00"/>
<path d="M59.1663 60.5501C55.9818 64.8298 54.0365 69.7147 52.2496 74.686C52.1344 75.003 51.7597 76.8042 50.3908 76.7898C50.0017 76.7898 49.3533 76.1702 49.1083 75.6803C48.0276 73.4756 47.3503 71.0115 45.9814 69.023C44.3675 66.6598 42.1484 64.7145 40.2752 62.5386C40.0014 62.2216 39.9005 61.5011 40.0734 61.112C40.4049 60.3916 40.9957 59.8152 41.4568 59.1523C43.8056 55.694 46.1111 52.2068 48.5319 48.8061C49.0363 48.1001 50.0306 47.2499 50.6214 47.2499C52.0911 47.2355 52.3793 48.3883 52.6387 49.2096C53.8203 52.985 55.8521 56.1407 58.8061 58.7488C59.858 59.7287 59.296 60.3771 59.1663 60.5501ZM42.9842 61.5443C46.4137 63.9796 48.7481 67.4956 50.1602 71.4294C52.2497 67.5964 54.3823 63.6914 56.5726 59.6567C53.633 57.6249 51.5868 53.8351 50.6502 51.0396C48.0852 54.5556 45.5491 58.0284 42.9842 61.5443Z" fill="#195A00"/>
</svg>
